PathFileType	4	(X/Y/Z)	C:/Users/opensim2020/Desktop/walking_exp_matlab/subject02_walking15_straight_02.trc																																																																																																																												
DataRate	CameraRate	NumFrames	NumMarkers	Units	OrigDataRate	OrigDataStartFrame	OrigNumFrames																																																																																																																								
100	100	5	42	mm	100	976	142																																																																																																																								
Frame#	Time	LFHD			RFHD			LBHD			RBHD			C7			T10			CLAV			STRN			RBAK			LSHO			LUPA			LELB			LFRM			LWRA			LWRB			LFIN			RSHO			RUPA			RELB			RFRM			RWRA			RWRB			RFIN			LASI			RASI			LPSI			RPSI			LTHI			LKNE			LTIB			LANK			LHEE			LTOE			RTHI			RKNE			RTIB			RANK			RHEE			RTOE			*39			*40			*41		
		X1	Y1	Z1	X2	Y2	Z2	X3	Y3	Z3	X4	Y4	Z4	X5	Y5	Z5	X6	Y6	Z6	X7	Y7	Z7	X8	Y8	Z8	X9	Y9	Z9	X10	Y10	Z10	X11	Y11	Z11	X12	Y12	Z12	X13	Y13	Z13	X14	Y14	Z14	X15	Y15	Z15	X16	Y16	Z16	X17	Y17	Z17	X18	Y18	Z18	X19	Y19	Z19	X20	Y20	Z20	X21	Y21	Z21	X22	Y22	Z22	X23	Y23	Z23	X24	Y24	Z24	X25	Y25	Z25	X26	Y26	Z26	X27	Y27	Z27	X28	Y28	Z28	X29	Y29	Z29	X30	Y30	Z30	X31	Y31	Z31	X32	Y32	Z32	X33	Y33	Z33	X34	Y34	Z34	X35	Y35	Z35	X36	Y36	Z36	X37	Y37	Z37	X38	Y38	Z38	X39	Y39	Z39	X40	Y40	Z40	X41	Y41	Z41	X42	Y42	Z42
																																																																																																																															
107	1.06	486.11456	1710.76074	992.17236	485.35236	1698.06262	1135.29541	354.21155	1637.70081	987.55713	341.49341	1623.56653	1129.43201	297.53528	1494.75928	1054.18384	262.20557	1216.23767	1073.84265	443.65689	1436.94739	1051.03003	506.91458	1270.61963	1067.63635	247.59441	1317.44556	1119.86243	377.75458	1470.94263	879.11267	399.67072	1281.09485	784.95422	438.23346	1145.47656	754.23132	543.55005	1060.21521	769.66071	660.48987	1029.0376	833.19537	641.08197	991.18799	796.448	704.18872	975.01538	804.60925	365.07416	1471.14746	1243.02722	309.24789	1292.48462	1334.11462	300.94553	1151.86243	1363.24951	295.57999	1037.93164	1400.33496	304.96271	899.72046	1403.23254	258.63467	917.35126	1431.66577	268.91309	845.13239	1443.57556	503.92566	950.50098	963.47552	522.03979	972.59601	1208.55688	297.60074	997.34589	1043.84338	300.60669	1009.19379	1161.61841	405.49966	642.07751	897.94434	362.68643	459.74301	907.49445	202.61862	365.89172	909.12225	45.73032	214.55513	944.77063	17.11004	221.17406	1004.15479	87.94527	63.11695	922.25696	520.6192	673.8811	1291.60132	562.37738	467.37241	1250.25098	534.83185	280.42014	1264.9502	520.53589	89.15215	1235.14331	479.55072	37.0633	1186.48669	674.39899	35.23519	1233.08984	384.4501	1780.62988	1078.52991	NaN	NaN	NaN	NaN	NaN	NaN
108	1.07	499.47366	1712.81653	993.28625	499.28342	1699.99377	1136.20996	368.04617	1640.45886	988.36072	355.26547	1625.74414	1130.44067	311.07394	1497.76917	1055.37476	275.41776	1218.7179	1075.10095	456.78415	1439.25537	1051.21533	520.12701	1272.8324	1067.65259	261.40689	1320.14758	1121.00171	390.104	1473.00549	879.4953	409.89838	1282.62561	785.72791	446.0343	1146.22498	755.29279	548.69452	1057.70264	769.1217	665.80707	1022.20581	830.88196	644.94495	985.42853	794.39075	706.96161	966.49554	801.44226	379.96262	1473.70691	1243.84741	325.94647	1294.24585	1334.94678	319.25195	1153.54797	1364.64185	315.92294	1039.55225	1401.97485	327.62195	901.64453	1404.75989	281.20712	918.37115	1433.37402	293.30264	846.5766	1445.64612	516.46259	952.61182	963.78461	534.82483	974.84668	1209.65198	310.12155	999.96295	1045.43237	312.98044	1011.68604	1162.70044	427.52692	643.54156	899.46973	390.62894	460.61795	909.35968	229.85176	368.85455	912.63068	72.72719	217.93407	948.30243	43.39779	222.97794	1007.90839	117.50406	68.37969	920.72101	529.96356	674.60529	1291.83923	567.24139	467.54224	1250.74158	537.7381	280.82193	1265.9259	520.92523	89.28755	1235.05334	479.51953	37.09378	1186.45374	674.64471	35.10406	1233.15918	398.4964	1783.07031	1080.09705	NaN	NaN	NaN	NaN	NaN	NaN
109	1.08	513.03534	1715.49341	993.71606	513.14172	1701.94348	1136.88782	381.98389	1642.69849	989.35852	369.12891	1628.01575	1131.04639	324.69781	1500.58569	1056.21021	288.38199	1221.36865	1076.20728	470.642	1441.84631	1051.08643	532.92444	1274.97144	1067.54016	274.86984	1323.19983	1122.84497	402.103	1475.22046	879.79413	419.11063	1284.38232	786.59326	453.59988	1147.14246	756.40155	553.7077	1054.95898	768.50018	670.66266	1015.27313	828.35132	646.83636	979.15302	792.1521	708.62006	957.80994	798.20172	395.06491	1476.39478	1244.46448	342.8172	1296.55042	1336.65613	337.77802	1155.44507	1366.17737	336.65463	1041.32642	1403.32092	351.00793	903.80042	1406.02808	304.34747	919.48651	1434.87244	318.48303	848.21338	1447.41711	528.75684	955.35077	963.3728	547.46686	976.85883	1210.29932	322.42307	1002.91144	1046.9845	325.12885	1014.45844	1163.80896	449.20572	645.27545	901.08313	418.20691	462.92642	911.72076	257.54932	371.51215	916.81396	100.76822	219.69659	951.62054	71.25043	222.97324	1011.72876	148.3244	72.93072	919.22382	538.84955	675.35779	1291.83777	572.0127	467.48843	1251.19067	540.68909	281.13593	1266.78003	521.3382	89.35541	1235.08557	479.46655	37.16349	1186.46313	674.43158	35.13044	1233.19568	412.50458	1785.30725	1081.27478	NaN	NaN	NaN	NaN	NaN	NaN
110	1.09	526.98981	1718.29834	994.46936	527.07092	1704.00208	1137.33691	395.7612	1645.74695	989.87079	383.02023	1630.52295	1131.56262	338.23569	1503.57361	1057.20703	301.29886	1224.15747	1077.21375	483.08844	1443.99011	1051.10168	546.03088	1277.2998	1067.3772	288.21564	1326.61792	1125.08008	414.26883	1477.52942	880.02972	428.30688	1285.8999	787.29828	460.95508	1148.28979	757.53107	558.39447	1052.72363	767.70111	674.40906	1008.07397	825.43573	648.60052	973.23938	789.43549	709.2865	948.76794	794.82477	410.11478	1479.34412	1244.94604	359.89584	1298.73633	1337.73132	356.54587	1157.47595	1367.75012	357.83954	1043.3429	1404.54932	374.89456	906.42242	1407.09509	328.07291	920.72449	1436.14929	344.36465	850.04297	1448.87878	540.52911	958.74091	962.09198	559.78973	978.75677	1210.70691	334.47012	1006.0191	1048.58362	337.32901	1017.35504	1164.89038	470.76996	647.38239	902.71692	445.34409	465.99341	914.32727	285.28693	373.94177	921.03546	129.55563	220.3213	955.05841	99.90995	221.64139	1015.659	180.02708	76.10117	918.59943	546.96558	675.58209	1292.07434	576.24695	467.38806	1251.61267	543.35022	281.24146	1267.52271	521.6283	89.52641	1235.17883	479.36636	37.35133	1186.50342	674.39508	35.14631	1233.33594	426.60889	1787.76965	1082.16663	NaN	NaN	NaN	NaN	NaN	NaN
111	1.1	540.94495	1720.34546	994.95581	541.17102	1706.27979	1137.82214	408.95172	1648.66565	990.12683	396.77185	1633.11499	1131.99744	351.75977	1506.40601	1057.96655	314.08902	1227.03894	1078.21985	496.18985	1446.33704	1050.91919	558.88153	1279.57544	1067.04224	301.51669	1330.17651	1127.1593	426.48117	1479.85193	880.21265	437.99432	1287.79956	787.86688	467.811	1149.21985	758.48755	561.39203	1050.22253	766.5802	677.16809	1000.53754	822.487	649.28601	967.08356	786.77753	708.84448	939.71783	791.38745	425.18005	1482.26648	1245.27466	377.16779	1300.86353	1338.49939	375.56531	1159.64282	1369.10571	379.36209	1045.37183	1405.65051	399.29367	908.99481	1407.83887	352.27075	922.07062	1437.1908	370.79193	852.2597	1450.00854	551.97864	962.35388	960.52863	571.85278	980.53973	1210.84009	346.40683	1009.10828	1050.15942	349.64087	1020.20923	1165.94519	491.8157	649.97491	904.23779	471.83334	469.20917	916.91742	312.81659	376.2803	925.28668	159.09911	219.56326	958.46552	129.26997	218.93349	1019.37067	213.41945	78.15929	918.74884	554.41809	675.87769	1292.26746	579.9021	467.20474	1252.0083	545.55621	281.24622	1267.90442	521.90436	89.69296	1235.24585	479.5574	37.49008	1186.19836	674.48938	35.25536	1233.50476	440.63712	1790.40186	1082.91357	NaN	NaN	NaN	NaN	NaN	NaN
